<svg height="481.888pt" viewBox="0 0 481.888 481.888" width="481.888pt" xmlns="http://www.w3.org/2000/svg"><path d="m441.886719 104.457031c0-4.417969-3.582031-8-8-8h-.125c-78.972657-105.386719-227.929688-127.84375-334.464844-50.425781-106.53125 77.421875-131.167969 226.035156-55.316406 333.6875 75.851562 107.65625 224.085937 134.46875 332.839843 60.199219 108.757813-74.265625 137.734376-222.09375 65.066407-331.921875zm-50.335938 130.355469-96-96-26.351562-26.355469h156.351562l.335938.464844v156.226563zm-149.664062 157.644531h24v16h16v-17.855469c6.777343-1.539062 13.296875-4.0625 19.34375-7.488281l15 15 11.3125-11.308593-13.222657-13.226563c4.3125-3.898437 8.136719-8.304687 11.390626-13.121094h20.175781v-16h-12.199219c2.761719-7.699219 4.183594-15.816406 4.199219-24 0-8.835937 7.164062-16 16-16 8.839843 0 16 7.164063 16 16-.066407 57.410157-46.589844 103.9375-104 104h-24c-8.835938 0-16-7.160156-16-16 0-8.835937 7.164062-16 16-16zm125.792969-100.75c-4.292969-2.109375-9.007813-3.21875-13.792969-3.25-17.671875 0-32 14.328125-32 32-.039063 30.914063-25.085938 55.960938-56 56h-15.007813c-.46875-.117187-.953125-.183593-1.4375-.199219-19.21875.992188-38.433594-2.050781-56.402344-8.933593 55.441407-15.480469 120.847657-49.65625 120.847657-94.867188 0-59.613281-120.078125-119.695312-175.582031-120h148.269531l91.136719 91.136719c-.355469 16.519531-3.757813 32.828125-10.03125 48.113281zm-200.359376 65.480469c-9.6875 2.003906-19.542968 3.097656-29.433593 3.269531-48.574219-.054687-87.941407-39.421875-88-88 0-48.09375 38.441406-104 88-104 51.539062 0 160 58.265625 160 104 0 38.671875-75.582031 74.035157-130.453125 84.707031zm128.222657-266.402344c-3.121094-3.121094-8.1875-3.121094-11.3125 0l-5.65625 5.671875h-28.6875c-3.234375.003907-6.148438 1.953125-7.386719 4.941407-1.238281 2.988281-.554688 6.429687 1.730469 8.714843l26.34375 26.34375h-125.597657l110.800782-110.796875 70.796875 70.796875h-28.6875c0-2.121093-.84375-4.152343-2.34375-5.652343zm117.746093 5.671875h-64.089843l-78.023438-78.023437c55.457031 7.339844 106.15625 35.171875 142.113281 78.023437zm52.597657 144c0 123.714844-100.285157 224-224 224-123.710938 0-224-100.285156-224-224 0-123.710937 100.289062-224 224-224h.457031l-122.328125 122.347657c-2.289063 2.285156-2.972656 5.726562-1.734375 8.71875.378906.890624.921875 1.703124 1.597656 2.398437-1.382812 1.863281-2.695312 3.769531-4 5.6875-47.542968 13.441406-81.992187 68.539063-81.992187 116.847656.066406 57.410157 46.589843 103.9375 104 104 10.089843-.191406 20.144531-1.28125 30.042969-3.253906 14.871093 8.28125 31.035156 14 47.804687 16.917969-6.886719 9.753906-7.757813 22.539062-2.25 33.132812 5.503906 10.597656 16.460937 17.234375 28.402344 17.203125h24c66.246093-.074219 119.925781-53.753906 120-120 .003906-6.300781-1.867188-12.464843-5.375-17.703125 6.328125-13.972656 10.472656-28.835937 12.289062-44.070312l35.429688 35.429687c1.5 1.5 3.535156 2.34375 5.65625 2.34375 1.054687.003907 2.09375-.203125 3.066406-.605469 2.988281-1.238281 4.9375-4.15625 4.933594-7.394531v-148.6875c15.800781 31.210938 24.023437 65.707031 24 100.6875zm0 0"/><path d="m331.761719 132.914062c-3.140625-3.03125-8.128907-2.988281-11.214844.097657-3.085937 3.085937-3.128906 8.074219-.097656 11.214843l72 72c3.136719 3.03125 8.128906 2.988282 11.214843-.097656 3.085938-3.085937 3.128907-8.074218.097657-11.214844zm0 0"/><path d="m383.542969 130.804688c-3.136719-3.035157-8.128907-2.992188-11.214844.09375-3.085937 3.085937-3.128906 8.078124-.097656 11.214843l24 24c3.140625 3.035157 8.128906 2.988281 11.214843-.097656 3.085938-3.085937 3.128907-8.074219.097657-11.210937zm0 0"/><path d="m252.230469 58.804688-48 48c-2.078125 2.007812-2.910157 4.980468-2.179688 7.777343s2.917969 4.980469 5.714844 5.714844c2.796875.730469 5.769531-.101563 7.777344-2.183594l48-48c3.03125-3.136719 2.988281-8.128906-.097657-11.214843-3.085937-3.085938-8.074218-3.128907-11.214843-.09375zm0 0"/><path d="m129.886719 208.457031c-35.34375 0-64 28.65625-64 64 0 35.347657 28.65625 64 64 64 35.347656 0 64-28.652343 64-64-.039063-35.328125-28.667969-63.957031-64-64zm0 112c-26.507813 0-48-21.488281-48-48 0-26.507812 21.492187-48 48-48 26.511719 0 48 21.492188 48 48-.023438 26.5-21.5 47.976563-48 48zm0 0"/></svg>