<?xml version="1.0" encoding="iso-8859-1"?>
<!-- Generator: Adobe Illustrator 18.1.1, SVG Export Plug-In . SVG Version: 6.00 Build 0)  -->
<svg version="1.1" id="Capa_1" xmlns="http://www.w3.org/2000/svg" xmlns:xlink="http://www.w3.org/1999/xlink" x="0px" y="0px"
	 viewBox="0 0 477.294 477.294" style="enable-background:new 0 0 477.294 477.294;" xml:space="preserve">
<g>
	<g>
		<path style="fill:#010002;" d="M253.33,194.434l-16.639,18.159l28.19,28.19l12.03-10.787c-1.569-2.178-3.195-4.202-4.715-6.511
			c-2.707-4.113-5.332-8.226-7.934-12.299C260.572,205.408,256.979,199.775,253.33,194.434z"/>
		<path style="fill:#010002;" d="M154.234,302.56c7.982,5.015,15.07,11.299,20.939,18.639l13.932-12.494l-21.134-21.134
			L154.234,302.56z"/>
		<path style="fill:#010002;" d="M30.233,451.159l21.183-18.988c-2.804-2.788-5.34-5.82-7.73-8.974l-19.72,21.516
			C-10.296,482.096-7.484,484.982,30.233,451.159z"/>
		<path style="fill:#010002;" d="M321.91,150.32c2.886,10.023,6.048,20.874,10.567,29.84l97.015-86.984
			c37.725-33.823,57.144-72.409,43.374-86.171c-13.77-13.77-52.706,5.381-86.968,42.773l-71.483,78.002
			c0.602,1.455,1.244,2.845,1.805,4.373C318.293,137.762,320.049,143.866,321.91,150.32z"/>
		<path style="fill:#010002;" d="M57.496,426.724c13.567,13.323,32.14,21.573,52.616,21.573c41.464,0,75.189-33.725,75.189-75.189
			c0-17.541-6.088-33.66-16.192-46.463c-5.657-7.169-12.599-13.258-20.468-17.98c-11.282-6.771-24.434-10.746-38.529-10.746
			c-41.464,0-75.189,33.725-75.189,75.189c0,16.436,5.365,31.604,14.339,43.992C51.757,420.53,54.48,423.766,57.496,426.724z"/>
		<path style="fill:#010002;" d="M173.466,281.581l21.703,21.703l41.098,41.098c8.332,8.332,19.257,12.502,30.173,12.502
			c10.925,0,21.841-4.17,30.173-12.502c16.664-16.664,16.664-43.683,0-60.355l-37.806-37.806L231.187,218.6l-44.016-44.016
			c-8.332-8.332-19.257-12.502-30.173-12.502c-10.925,0-21.841,4.17-30.173,12.502c-16.664,16.664-16.664,43.683,0,60.355
			L173.466,281.581z"/>
		<path style="fill:#010002;" d="M181.132,145.476c0.471,0,0.959-0.016,1.463-0.057c2.495-0.187,4.926-0.285,7.267-0.285
			c33.636,0,52.364,18.996,69.085,43.163c6.714,9.706,13.12,20.224,20.029,30.71c1.276,1.943,2.658,3.69,3.983,5.552
			c22.703,32.002,51.543,51.795,92.015,54.982c0.512,0.041,1.016,0.057,1.512,0.057c19.395,0,18.736-30.986-1.512-32.571
			c-10.526-0.829-19.598-3.487-27.686-7.397c16.826,4.194,35.473,4.609,53.429,4.682c0.024,0,0.057,0,0.081,0
			c20.89,0,20.85-32.425-0.081-32.514c-0.341,0-0.691,0-1.032,0c-5.202,0-10.689,0.154-16.249,0.154
			c-17.233,0-35.189-1.447-47.723-13.315c-3.772-3.568-6.844-7.99-9.486-12.868c-8.364-15.452-12.112-35.814-17.631-50.82
			c-0.073-0.195-0.154-0.374-0.228-0.569c-14.176-37.863-42.634-52.819-80.806-61.533c-1.406-0.317-2.756-0.471-4.04-0.471
			c-17.428,0-23.63,27.483-4.601,31.823c22.467,5.129,43.13,10.453,54.917,31.726c4.3,7.763,7.527,16.151,10.461,24.711
			c1.536,4.479,3.016,8.982,4.479,13.502c-2.317-3.601-4.674-7.153-7.08-10.665c-0.39-0.577-0.764-1.171-1.154-1.748
			c-21.907-31.596-51.047-49.194-88.455-49.194c-3.105,0-6.267,0.122-9.486,0.366C162.322,114.449,161.688,145.476,181.132,145.476z
			"/>
	</g>
</g>
<g>
</g>
<g>
</g>
<g>
</g>
<g>
</g>
<g>
</g>
<g>
</g>
<g>
</g>
<g>
</g>
<g>
</g>
<g>
</g>
<g>
</g>
<g>
</g>
<g>
</g>
<g>
</g>
<g>
</g>
</svg>
