<?xml version="1.0" encoding="iso-8859-1"?>
<!-- Generator: Adobe Illustrator 19.1.0, SVG Export Plug-In . SVG Version: 6.00 Build 0)  -->
<svg xmlns="http://www.w3.org/2000/svg" xmlns:xlink="http://www.w3.org/1999/xlink" version="1.1" id="Capa_1" x="0px" y="0px" viewBox="0 0 25.514 25.514" style="enable-background:new 0 0 25.514 25.514;" xml:space="preserve" width="512px" height="512px">
<g>
	<g>
		<path d="M24.914,20.589c-0.53-0.53-1.271-0.688-1.959-0.477l-2.754-2.754c1.165-3.919-2.065-10.75-8.049-16.787l0,0    c0,0,0,0-0.053-0.053l0,0l0,0l-0.212-0.212C11.834,0.253,11.675,0.2,11.569,0.2c-1.801-0.847-5.19,1.112-7.732,3.654    c-2.489,2.489-4.448,5.878-3.654,7.679c0,0.106,0.053,0.265,0.159,0.371l0.212,0.212l0,0l0,0c0,0,0,0,0.053,0.053l0,0    c6.09,5.984,12.921,9.214,16.787,8.049l2.754,2.754c-0.212,0.688-0.053,1.43,0.477,1.959c0.371,0.371,0.847,0.583,1.377,0.583    c0.477,0,1.006-0.212,1.377-0.583c0.265-0.265,0.477-0.635,0.53-1.006c0.371-0.053,0.688-0.265,1.006-0.53    C25.708,22.601,25.708,21.33,24.914,20.589z M4.684,4.596c2.277-2.277,4.713-3.548,5.984-3.548c0.265,0,0.424,0.053,0.583,0.159    l0,0c0.053,0,0.053,0.053,0.106,0.106c0,0,0,0,0.053,0.053c0,0,0,0.053,0.053,0.053c0.053,0.053,0.053,0.106,0.106,0.159V1.63    c0,0.053,0.053,0.106,0.053,0.159c0,0.053,0,0.159,0.053,0.265l0,0c0.053,1.271-1.218,3.707-3.548,6.037l0,0l0,0    C7.968,8.25,7.756,8.409,7.597,8.567C7.491,8.673,7.385,8.779,7.279,8.885C7.226,8.938,7.12,8.991,7.068,9.044    c-1.059,0.9-2.171,1.642-3.177,2.118c-0.847,0.371-1.589,0.53-2.065,0.424H1.772c-0.053,0-0.106-0.053-0.159-0.053    c-0.053,0-0.106-0.053-0.106-0.053l-0.053-0.053C0.554,10.527,1.825,7.455,4.684,4.596z M24.173,22.601    c-0.159,0.159-0.424,0.265-0.688,0.265c-0.159,0-0.318,0.053-0.424,0.159c-0.106,0.106-0.159,0.265-0.159,0.424    c0,0.265-0.053,0.53-0.265,0.688c-0.318,0.318-0.9,0.318-1.218,0c-0.265-0.265-0.318-0.741-0.159-1.059    c0.106-0.212,0.106-0.477-0.106-0.635l-3.23-3.23c-0.106-0.106-0.212-0.159-0.371-0.159c-0.053,0-0.106,0-0.212,0.053    c-3.177,1.218-9.162-1.483-14.722-6.461c0.106,0,0.265-0.053,0.371-0.053c0.053,0,0.159-0.053,0.212-0.053    s0.159-0.053,0.212-0.053c0.265-0.053,0.53-0.159,0.794-0.265c1.218-0.53,2.489-1.43,3.76-2.542    c0.053-0.053,0.106-0.106,0.159-0.159C8.18,9.468,8.286,9.362,8.338,9.309C8.497,9.15,8.656,8.991,8.815,8.885l0,0l0,0l0,0    c0.159-0.159,0.318-0.318,0.424-0.477C9.292,8.356,9.345,8.303,9.398,8.25c0.106-0.106,0.212-0.265,0.318-0.371    C9.768,7.826,9.821,7.72,9.874,7.667c0.106-0.106,0.212-0.265,0.318-0.371c0.053-0.106,0.159-0.159,0.212-0.265    c0.053-0.053,0.106-0.106,0.159-0.159c0.265-0.371,0.53-0.741,0.741-1.112l0,0c0.688-1.059,1.165-2.118,1.324-3.071    c4.978,5.56,7.679,11.545,6.461,14.722c-0.053,0.212-0.053,0.424,0.106,0.583l3.23,3.23c0.159,0.159,0.424,0.212,0.635,0.106    c0.318-0.212,0.794-0.159,1.059,0.159c0.159,0.159,0.265,0.371,0.265,0.635S24.331,22.442,24.173,22.601z" fill="#d3d4b8"/>
		<path d="M5.161,8.885c0.688,0,1.483-0.371,2.171-1.059C8.444,6.714,8.709,5.39,8.021,4.702C7.65,4.331,7.068,4.225,6.432,4.437    c-0.53,0.159-1.112,0.53-1.589,1.006C3.731,6.555,3.466,7.879,4.155,8.567C4.473,8.779,4.79,8.885,5.161,8.885z M5.691,6.131    c0.53-0.53,1.112-0.794,1.43-0.794c0.106,0,0.159,0,0.212,0.053c0.159,0.159,0,0.9-0.688,1.642    C5.902,7.773,5.161,7.879,5.002,7.72C4.79,7.614,4.949,6.873,5.691,6.131z" fill="#d3d4b8"/>
	</g>
</g>
<g>
</g>
<g>
</g>
<g>
</g>
<g>
</g>
<g>
</g>
<g>
</g>
<g>
</g>
<g>
</g>
<g>
</g>
<g>
</g>
<g>
</g>
<g>
</g>
<g>
</g>
<g>
</g>
<g>
</g>
</svg>
